<svg width="14" height="14" viewBox="0 0 14 14" fill="none" xmlns="http://www.w3.org/2000/svg">
<path d="M10.9994 12.3032H3.43169C2.83461 12.3032 2.35059 11.8108 2.35059 11.2035V3.50614C2.35059 2.89883 2.83461 2.40651 3.43169 2.40651H4.51279V1.30688H5.59389V2.40651H8.8372V1.30688H9.91831V2.40651H10.9994C11.5965 2.40651 12.0805 2.89883 12.0805 3.50614V11.2035C12.0805 11.8108 11.5965 12.3032 10.9994 12.3032ZM3.43169 5.7054V11.2035H10.9994V5.7054H3.43169ZM3.43169 3.50614V4.60577H10.9994V3.50614H3.43169ZM9.91831 10.1039H8.8372V9.00428H9.91831V10.1039ZM7.7561 10.1039H6.675V9.00428H7.7561V10.1039ZM5.59389 10.1039H4.51279V9.00428H5.59389V10.1039ZM9.91831 7.90466H8.8372V6.80503H9.91831V7.90466ZM7.7561 7.90466H6.675V6.80503H7.7561V7.90466ZM5.59389 7.90466H4.51279V6.80503H5.59389V7.90466Z" fill="white"/>
</svg>
