<svg width="32" height="32" viewBox="0 0 32 32" fill="none" xmlns="http://www.w3.org/2000/svg">
<path d="M25.3299 26.6666C13.9544 26.6827 5.3211 17.9459 5.33326 6.66993C5.33326 5.93355 5.93022 5.33325 6.6666 5.33325H10.1857C10.8465 5.33325 11.4078 5.81876 11.5049 6.47236C11.7374 8.03885 12.1935 9.56388 12.8592 11.0009L12.9962 11.2966C13.1868 11.7078 13.0576 12.1964 12.6888 12.4597C11.599 13.238 11.1825 14.8047 12.0315 16.0271C13.097 17.561 14.44 18.9038 15.9736 19.9687C17.1959 20.8175 18.7623 20.4011 19.5406 19.3114C19.8041 18.9425 20.293 18.8133 20.7044 19.0038L20.9988 19.1402C22.4359 19.8059 23.961 20.262 25.5277 20.4945C26.1813 20.5915 26.6666 21.1528 26.6666 21.8136V25.3332C26.6666 26.0696 26.0682 26.6666 25.3318 26.6666L25.3299 26.6666Z" fill="#2E3387"/>
</svg>
