<svg width="32" height="32" viewBox="0 0 32 32" fill="none" xmlns="http://www.w3.org/2000/svg">
<path d="M16.0027 28.0546C12.7227 28.0546 12.336 28.0373 11.056 27.9813C10.0578 27.9484 9.0726 27.7455 8.14269 27.3813C6.53377 26.7551 5.26154 25.4824 4.63602 23.8733C4.28576 22.94 4.09684 21.9539 4.07735 20.9573C4.00269 19.6799 4.00269 19.2613 4.00269 16.0066C4.00269 12.7173 4.02002 12.3333 4.07735 11.0599C4.09727 10.0646 4.28618 9.07994 4.63602 8.14793C5.26086 6.53663 6.53515 5.26282 8.14669 4.63859C9.07821 4.28686 10.0631 4.09745 11.0587 4.07859C12.332 4.00659 12.7507 4.00659 16.0027 4.00659C19.3094 4.00659 19.6894 4.02393 20.9494 4.07859C21.9475 4.09761 22.935 4.287 23.8694 4.63859C25.4804 5.26353 26.7545 6.53709 27.38 8.14793C27.7362 9.09352 27.9261 10.0936 27.9414 11.1039C28.016 12.3813 28.016 12.7986 28.016 16.0519C28.016 19.3053 27.9974 19.7319 27.9414 20.9946C27.9215 21.9922 27.7321 22.9792 27.3814 23.9133C26.7542 25.5235 25.4801 26.7967 23.8694 27.4226C22.9363 27.7722 21.9508 27.9611 20.9547 27.9813C19.6814 28.0546 19.264 28.0546 16.0027 28.0546ZM15.9574 6.11726C12.696 6.11726 12.3574 6.13326 11.084 6.19059C10.324 6.20066 9.57132 6.34091 8.85869 6.60526C7.80636 7.00794 6.97365 7.83725 6.56669 8.88793C6.3003 9.60832 6.16003 10.3692 6.15202 11.1373C6.08135 12.4293 6.08135 12.7679 6.08135 16.0066C6.08135 19.2066 6.09335 19.5946 6.15202 20.8786C6.16395 21.6389 6.30415 22.3917 6.56669 23.1053C6.97425 24.1552 7.80681 24.9839 8.85869 25.3866C9.57084 25.6527 10.3238 25.793 11.084 25.8013C12.3747 25.8759 12.7147 25.8759 15.9574 25.8759C19.228 25.8759 19.5667 25.8599 20.8294 25.8013C21.5899 25.792 22.3431 25.6517 23.056 25.3866C24.102 24.9804 24.9293 24.1536 25.336 23.1079C25.6019 22.3869 25.7421 21.6257 25.7507 20.8573H25.7654C25.8227 19.5826 25.8227 19.2426 25.8227 15.9853C25.8227 12.7279 25.808 12.3853 25.7507 11.1119C25.7387 10.3525 25.5985 9.60061 25.336 8.88793C24.9302 7.84069 24.1028 7.01232 23.056 6.60526C22.3433 6.33958 21.5899 6.19929 20.8294 6.19059C19.54 6.11726 19.2027 6.11726 15.9574 6.11726ZM16.0027 22.1653C13.5093 22.1669 11.2606 20.6662 10.3052 18.3632C9.34976 16.0602 9.87589 13.4084 11.6382 11.6445C13.4005 9.88071 16.0518 9.35229 18.3557 10.3057C20.6596 11.2591 22.1621 13.5066 22.1627 15.9999C22.159 19.4013 19.4041 22.1586 16.0027 22.1653ZM16.0027 11.9973C13.7935 11.9973 12.0027 13.7881 12.0027 15.9973C12.0027 18.2064 13.7935 19.9973 16.0027 19.9973C18.2118 19.9973 20.0027 18.2064 20.0027 15.9973C19.9976 13.7902 18.2097 12.0024 16.0027 11.9973ZM22.4027 11.0466C21.6099 11.0436 20.9692 10.3994 20.9707 9.6066C20.9722 8.81383 21.6152 8.17193 22.408 8.17193C23.2008 8.17193 23.8439 8.81382 23.8454 9.60659C23.8457 9.98907 23.6937 10.356 23.423 10.6262C23.1523 10.8964 22.7852 11.0477 22.4027 11.0466Z" fill="#2E3387"/>
</svg>
