<svg width="32" height="32" viewBox="0 0 32 32" fill="none" xmlns="http://www.w3.org/2000/svg">
<path d="M16.0001 28.0001C14.316 26.5636 12.755 24.9888 11.3334 23.2921C9.20008 20.7441 6.66675 16.9494 6.66675 13.3334C6.66486 9.5568 8.93908 6.15125 12.4282 4.70593C15.9173 3.26061 19.9335 4.06039 22.6027 6.73207C24.358 8.47954 25.3413 10.8566 25.3335 13.3334C25.3335 16.9494 22.8001 20.7441 20.6667 23.2921C19.2452 24.9888 17.6842 26.5636 16.0001 28.0001ZM16.0001 9.3334C14.571 9.3334 13.2505 10.0958 12.536 11.3334C11.8215 12.571 11.8215 14.0958 12.536 15.3334C13.2505 16.571 14.571 17.3334 16.0001 17.3334C18.2092 17.3334 20.0001 15.5425 20.0001 13.3334C20.0001 11.1243 18.2092 9.3334 16.0001 9.3334Z" fill="#2E3387"/>
</svg>
