<svg width="32" height="32" viewBox="0 0 32 32" fill="none" xmlns="http://www.w3.org/2000/svg">
<path d="M16.008 25.3494H15.9813C15.8986 25.3494 7.62796 25.3334 5.5413 24.7667C4.39386 24.4576 3.49776 23.561 3.1893 22.4134C2.81407 20.2966 2.63287 18.1499 2.64797 16.0001C2.63827 13.8468 2.82437 11.697 3.20397 9.57741C3.52091 8.42876 4.41307 7.52801 5.55863 7.20008C7.58797 6.66675 15.6306 6.66675 15.972 6.66675H16C16.084 6.66675 24.376 6.68275 26.4413 7.24941C27.5863 7.56009 28.4806 8.45488 28.7906 9.60008C29.1778 11.7248 29.3595 13.8819 29.3333 16.0414C29.3426 18.1921 29.1561 20.3392 28.776 22.4561C28.4635 23.6023 27.5669 24.4969 26.42 24.8067C24.3933 25.3441 16.3493 25.3494 16.008 25.3494ZM13.3413 12.0067L13.3346 20.0067L20.284 16.0067L13.3413 12.0067Z" fill="#2E3387"/>
</svg>
